<svg xmlns="http://www.w3.org/2000/svg" viewBox="0 0 64 64" width="64" height="64">
  <!-- Background circle -->
  <circle cx="32" cy="32" r="30" fill="#3B82F6" stroke="#1E40AF" stroke-width="2"/>
  
  <!-- Graduation cap -->
  <path d="M16 28 L32 22 L48 28 L48 34 L46 35 L46 40 C46 42 44 44 40 44 L24 44 C20 44 18 42 18 40 L18 35 L16 34 Z" fill="#FFFFFF"/>
  
  <!-- Cap top -->
  <ellipse cx="32" cy="28" rx="16" ry="4" fill="#FEF3C7"/>
  
  <!-- Tassel -->
  <line x1="46" y1="30" x2="50" y2="34" stroke="#FBBF24" stroke-width="2"/>
  <circle cx="50" cy="34" r="2" fill="#F59E0B"/>
  
  <!-- Note/document -->
  <rect x="26" y="38" width="12" height="8" fill="#F3F4F6" rx="1"/>
  <line x1="28" y1="40" x2="36" y2="40" stroke="#6B7280" stroke-width="1"/>
  <line x1="28" y1="42" x2="34" y2="42" stroke="#6B7280" stroke-width="1"/>
  <line x1="28" y1="44" x2="35" y2="44" stroke="#6B7280" stroke-width="1"/>
</svg>